<svg xmlns="http://www.w3.org/2000/svg" xmlns:xlink="http://www.w3.org/1999/xlink" width="260" zoomAndPan="magnify" viewBox="0 0 194.87999 44.999999" height="60" preserveAspectRatio="xMidYMid meet" version="1.0"><defs><g/><clipPath id="a7dd70a7ed"><path d="M 121.953125 24.75 L 125.699219 24.75 L 125.699219 28.496094 L 121.953125 28.496094 Z M 121.953125 24.75 " clip-rule="nonzero"/></clipPath><clipPath id="75b47dc5a3"><path d="M 42 13.503906 L 59.976562 13.503906 L 59.976562 31.496094 L 42 31.496094 Z M 42 13.503906 " clip-rule="nonzero"/></clipPath></defs><g fill="#ffffff" fill-opacity="1"><g transform="translate(59.975819, 27.371998)"><g><path d="M 5.09375 -6.53125 L 8.4375 -12.84375 L 10.171875 -12.84375 L 5.90625 -4.984375 L 5.90625 0 L 4.28125 0 L 4.28125 -4.90625 L 0 -12.84375 L 1.765625 -12.84375 Z M 5.09375 -6.53125 "/></g></g></g><g fill="#ffffff" fill-opacity="1"><g transform="translate(70.157514, 27.371998)"><g><path d="M 9.90625 -4.84375 C 9.90625 -3.25 9.5 -2.007812 8.6875 -1.125 C 7.882812 -0.25 6.789062 0.1875 5.40625 0.1875 C 4.5625 0.1875 3.804688 -0.00390625 3.140625 -0.390625 C 2.472656 -0.785156 1.945312 -1.359375 1.5625 -2.109375 C 1.175781 -2.859375 0.984375 -3.769531 0.984375 -4.84375 C 0.984375 -6.4375 1.378906 -7.660156 2.171875 -8.515625 C 2.972656 -9.378906 4.070312 -9.8125 5.46875 -9.8125 C 6.332031 -9.8125 7.097656 -9.617188 7.765625 -9.234375 C 8.441406 -8.847656 8.96875 -8.285156 9.34375 -7.546875 C 9.71875 -6.804688 9.90625 -5.90625 9.90625 -4.84375 Z M 2.625 -4.84375 C 2.625 -3.695312 2.847656 -2.789062 3.296875 -2.125 C 3.742188 -1.46875 4.460938 -1.140625 5.453125 -1.140625 C 6.421875 -1.140625 7.128906 -1.46875 7.578125 -2.125 C 8.035156 -2.789062 8.265625 -3.695312 8.265625 -4.84375 C 8.265625 -5.976562 8.035156 -6.867188 7.578125 -7.515625 C 7.128906 -8.160156 6.414062 -8.484375 5.4375 -8.484375 C 4.445312 -8.484375 3.726562 -8.160156 3.28125 -7.515625 C 2.84375 -6.867188 2.625 -5.976562 2.625 -4.84375 Z M 2.625 -4.84375 "/></g></g></g><g fill="#ffffff" fill-opacity="1"><g transform="translate(81.040781, 27.371998)"><g><path d="M 7.8125 -2.65625 C 7.8125 -1.726562 7.460938 -1.019531 6.765625 -0.53125 C 6.066406 -0.0507812 5.128906 0.1875 3.953125 0.1875 C 3.285156 0.1875 2.707031 0.128906 2.21875 0.015625 C 1.738281 -0.0859375 1.3125 -0.238281 0.9375 -0.4375 L 0.9375 -1.875 C 1.320312 -1.675781 1.785156 -1.492188 2.328125 -1.328125 C 2.867188 -1.171875 3.425781 -1.09375 4 -1.09375 C 4.800781 -1.09375 5.378906 -1.222656 5.734375 -1.484375 C 6.097656 -1.742188 6.28125 -2.085938 6.28125 -2.515625 C 6.28125 -2.753906 6.210938 -2.96875 6.078125 -3.15625 C 5.941406 -3.351562 5.703125 -3.546875 5.359375 -3.734375 C 5.023438 -3.929688 4.539062 -4.148438 3.90625 -4.390625 C 3.28125 -4.628906 2.742188 -4.867188 2.296875 -5.109375 C 1.859375 -5.347656 1.519531 -5.632812 1.28125 -5.96875 C 1.039062 -6.300781 0.921875 -6.734375 0.921875 -7.265625 C 0.921875 -8.078125 1.25 -8.703125 1.90625 -9.140625 C 2.570312 -9.585938 3.445312 -9.8125 4.53125 -9.8125 C 5.113281 -9.8125 5.660156 -9.75 6.171875 -9.625 C 6.679688 -9.507812 7.160156 -9.359375 7.609375 -9.171875 L 7.0625 -7.90625 C 6.65625 -8.082031 6.226562 -8.226562 5.78125 -8.34375 C 5.34375 -8.46875 4.890625 -8.53125 4.421875 -8.53125 C 3.773438 -8.53125 3.28125 -8.421875 2.9375 -8.203125 C 2.59375 -7.992188 2.421875 -7.710938 2.421875 -7.359375 C 2.421875 -7.078125 2.5 -6.847656 2.65625 -6.671875 C 2.8125 -6.492188 3.070312 -6.3125 3.4375 -6.125 C 3.8125 -5.945312 4.300781 -5.742188 4.90625 -5.515625 C 5.519531 -5.285156 6.039062 -5.050781 6.46875 -4.8125 C 6.90625 -4.570312 7.238281 -4.28125 7.46875 -3.9375 C 7.695312 -3.601562 7.8125 -3.175781 7.8125 -2.65625 Z M 7.8125 -2.65625 "/></g></g></g><g fill="#ffffff" fill-opacity="1"><g transform="translate(89.657453, 27.371998)"><g><path d="M 11.125 0 L 9.21875 0 L 4.671875 -6.125 L 3.359375 -4.984375 L 3.359375 0 L 1.75 0 L 1.75 -12.84375 L 3.359375 -12.84375 L 3.359375 -6.515625 C 3.722656 -6.921875 4.085938 -7.328125 4.453125 -7.734375 C 4.828125 -8.140625 5.203125 -8.546875 5.578125 -8.953125 L 9.046875 -12.84375 L 10.9375 -12.84375 L 5.84375 -7.25 Z M 11.125 0 "/></g></g></g><g fill="#ffffff" fill-opacity="1"><g transform="translate(100.792563, 27.371998)"><g><path d="M 5.171875 -9.796875 C 6.347656 -9.796875 7.21875 -9.535156 7.78125 -9.015625 C 8.34375 -8.503906 8.625 -7.6875 8.625 -6.5625 L 8.625 0 L 7.484375 0 L 7.171875 -1.359375 L 7.109375 -1.359375 C 6.679688 -0.835938 6.234375 -0.445312 5.765625 -0.1875 C 5.304688 0.0625 4.671875 0.1875 3.859375 0.1875 C 2.984375 0.1875 2.257812 -0.0390625 1.6875 -0.5 C 1.113281 -0.96875 0.828125 -1.691406 0.828125 -2.671875 C 0.828125 -3.640625 1.203125 -4.382812 1.953125 -4.90625 C 2.710938 -5.425781 3.878906 -5.707031 5.453125 -5.75 L 7.078125 -5.8125 L 7.078125 -6.390625 C 7.078125 -7.191406 6.90625 -7.75 6.5625 -8.0625 C 6.21875 -8.375 5.726562 -8.53125 5.09375 -8.53125 C 4.582031 -8.53125 4.097656 -8.453125 3.640625 -8.296875 C 3.191406 -8.148438 2.769531 -7.976562 2.375 -7.78125 L 1.890625 -8.96875 C 2.304688 -9.195312 2.800781 -9.390625 3.375 -9.546875 C 3.957031 -9.710938 4.554688 -9.796875 5.171875 -9.796875 Z M 7.0625 -4.71875 L 5.640625 -4.65625 C 4.441406 -4.613281 3.613281 -4.421875 3.15625 -4.078125 C 2.695312 -3.742188 2.46875 -3.269531 2.46875 -2.65625 C 2.46875 -2.125 2.628906 -1.726562 2.953125 -1.46875 C 3.285156 -1.21875 3.707031 -1.09375 4.21875 -1.09375 C 5.03125 -1.09375 5.707031 -1.316406 6.25 -1.765625 C 6.789062 -2.222656 7.0625 -2.914062 7.0625 -3.84375 Z M 7.0625 -4.71875 "/></g></g></g><g fill="#ffffff" fill-opacity="1"><g transform="translate(110.884317, 27.371998)"><g><path d="M 4.953125 0.1875 C 3.742188 0.1875 2.78125 -0.226562 2.0625 -1.0625 C 1.34375 -1.894531 0.984375 -3.140625 0.984375 -4.796875 C 0.984375 -6.453125 1.347656 -7.703125 2.078125 -8.546875 C 2.804688 -9.390625 3.769531 -9.8125 4.96875 -9.8125 C 5.707031 -9.8125 6.3125 -9.675781 6.78125 -9.40625 C 7.257812 -9.132812 7.648438 -8.800781 7.953125 -8.40625 L 8.0625 -8.40625 C 8.03125 -8.550781 8.003906 -8.773438 7.984375 -9.078125 C 7.960938 -9.390625 7.953125 -9.632812 7.953125 -9.8125 L 7.953125 -13.671875 L 9.53125 -13.671875 L 9.53125 0 L 8.25 0 L 8.015625 -1.296875 L 7.953125 -1.296875 C 7.660156 -0.890625 7.273438 -0.539062 6.796875 -0.25 C 6.316406 0.0390625 5.703125 0.1875 4.953125 0.1875 Z M 5.203125 -1.140625 C 6.210938 -1.140625 6.925781 -1.414062 7.34375 -1.96875 C 7.757812 -2.53125 7.96875 -3.375 7.96875 -4.5 L 7.96875 -4.78125 C 7.96875 -5.976562 7.769531 -6.894531 7.375 -7.53125 C 6.976562 -8.175781 6.242188 -8.5 5.171875 -8.5 C 4.328125 -8.5 3.691406 -8.160156 3.265625 -7.484375 C 2.835938 -6.804688 2.625 -5.898438 2.625 -4.765625 C 2.625 -3.617188 2.835938 -2.726562 3.265625 -2.09375 C 3.691406 -1.457031 4.335938 -1.140625 5.203125 -1.140625 Z M 5.203125 -1.140625 "/></g></g></g><g clip-path="url(#a7dd70a7ed)"><path fill="#004aad" d="M 125.699219 26.621094 C 125.699219 27.65625 124.863281 28.496094 123.828125 28.496094 C 123.246094 28.496094 122.730469 28.234375 122.386719 27.820312 C 122.128906 27.511719 121.96875 27.117188 121.957031 26.691406 C 121.953125 26.667969 121.953125 26.644531 121.953125 26.621094 C 121.953125 25.585938 122.792969 24.75 123.828125 24.75 C 124.039062 24.75 124.242188 24.785156 124.433594 24.847656 C 124.828125 24.984375 125.164062 25.246094 125.390625 25.589844 C 125.585938 25.886719 125.699219 26.242188 125.699219 26.621094 " fill-opacity="1" fill-rule="nonzero"/></g><g clip-path="url(#75b47dc5a3)"><path fill="#ffffff" d="M 50.121094 13.554688 C 48.011719 13.773438 46.109375 14.671875 44.628906 16.152344 C 43.207031 17.578125 42.347656 19.320312 42.054688 21.402344 C 41.992188 21.816406 41.992188 23.199219 42.054688 23.613281 C 42.351562 25.695312 43.207031 27.433594 44.628906 28.859375 C 46.054688 30.28125 47.792969 31.136719 49.875 31.433594 C 50.289062 31.496094 51.671875 31.496094 52.085938 31.433594 C 53.535156 31.226562 54.765625 30.773438 55.933594 30.007812 C 56.886719 29.382812 57.859375 28.414062 58.484375 27.460938 C 59.25 26.285156 59.703125 25.0625 59.910156 23.613281 C 59.96875 23.199219 59.96875 21.816406 59.910156 21.402344 C 59.609375 19.320312 58.757812 17.578125 57.335938 16.152344 C 55.945312 14.761719 54.242188 13.914062 52.246094 13.605469 C 51.804688 13.539062 50.570312 13.507812 50.121094 13.554688 Z M 52.085938 19.617188 C 52.074219 19.671875 51.757812 20.988281 51.382812 22.542969 C 51.007812 24.097656 50.691406 25.398438 50.679688 25.429688 C 50.660156 25.484375 50.609375 25.492188 50.257812 25.492188 L 49.851562 25.492188 L 49.875 25.375 C 49.890625 25.316406 50.207031 23.984375 50.582031 22.421875 C 50.957031 20.855469 51.261719 19.566406 51.261719 19.550781 C 51.261719 19.535156 51.453125 19.523438 51.6875 19.523438 L 52.113281 19.523438 Z M 49.472656 20.917969 L 49.472656 21.472656 L 48.179688 21.960938 C 47.46875 22.230469 46.851562 22.46875 46.800781 22.492188 L 46.714844 22.539062 L 46.820312 22.578125 C 46.878906 22.597656 47.492188 22.839844 48.1875 23.117188 L 49.453125 23.621094 L 49.464844 24.167969 C 49.46875 24.472656 49.460938 24.71875 49.445312 24.71875 C 49.429688 24.71875 48.539062 24.335938 47.460938 23.871094 L 45.503906 23.019531 L 45.503906 22.0625 L 46.039062 21.824219 C 48.816406 20.617188 49.390625 20.371094 49.429688 20.367188 C 49.460938 20.363281 49.472656 20.5 49.472656 20.917969 Z M 54.539062 21.234375 L 56.460938 22.066406 L 56.460938 23.019531 L 55.117188 23.605469 C 54.378906 23.925781 53.484375 24.316406 53.128906 24.46875 L 52.492188 24.75 L 52.5 24.1875 L 52.507812 23.621094 L 53.84375 23.097656 C 54.578125 22.808594 55.1875 22.5625 55.203125 22.550781 C 55.21875 22.535156 54.617188 22.285156 53.867188 22 L 52.507812 21.46875 L 52.5 20.914062 C 52.492188 20.394531 52.496094 20.359375 52.550781 20.378906 C 52.585938 20.394531 53.476562 20.78125 54.539062 21.234375 Z M 54.539062 21.234375 " fill-opacity="1" fill-rule="nonzero"/></g></svg>