<svg xmlns="http://www.w3.org/2000/svg" xmlns:xlink="http://www.w3.org/1999/xlink" width="260" zoomAndPan="magnify" viewBox="0 0 194.87999 44.999999" height="60" preserveAspectRatio="xMidYMid meet" version="1.0"><defs><g/><clipPath id="a85b0cb7b5"><path d="M 84.464844 24.300781 L 88.210938 24.300781 L 88.210938 28.046875 L 84.464844 28.046875 Z M 84.464844 24.300781 " clip-rule="nonzero"/></clipPath><clipPath id="f48cac71eb"><path d="M 4.496094 11.929688 L 22.484375 11.929688 L 22.484375 29.921875 L 4.496094 29.921875 Z M 4.496094 11.929688 " clip-rule="nonzero"/></clipPath></defs><g fill="#ffffff" fill-opacity="1"><g transform="translate(22.486152, 27.371998)"><g><path d="M 5.09375 -6.53125 L 8.4375 -12.84375 L 10.171875 -12.84375 L 5.90625 -4.984375 L 5.90625 0 L 4.28125 0 L 4.28125 -4.90625 L 0 -12.84375 L 1.765625 -12.84375 Z M 5.09375 -6.53125 "/></g></g></g><g fill="#ffffff" fill-opacity="1"><g transform="translate(32.667847, 27.371998)"><g><path d="M 9.90625 -4.84375 C 9.90625 -3.25 9.5 -2.007812 8.6875 -1.125 C 7.882812 -0.25 6.789062 0.1875 5.40625 0.1875 C 4.5625 0.1875 3.804688 -0.00390625 3.140625 -0.390625 C 2.472656 -0.785156 1.945312 -1.359375 1.5625 -2.109375 C 1.175781 -2.859375 0.984375 -3.769531 0.984375 -4.84375 C 0.984375 -6.4375 1.378906 -7.660156 2.171875 -8.515625 C 2.972656 -9.378906 4.070312 -9.8125 5.46875 -9.8125 C 6.332031 -9.8125 7.097656 -9.617188 7.765625 -9.234375 C 8.441406 -8.847656 8.96875 -8.285156 9.34375 -7.546875 C 9.71875 -6.804688 9.90625 -5.90625 9.90625 -4.84375 Z M 2.625 -4.84375 C 2.625 -3.695312 2.847656 -2.789062 3.296875 -2.125 C 3.742188 -1.46875 4.460938 -1.140625 5.453125 -1.140625 C 6.421875 -1.140625 7.128906 -1.46875 7.578125 -2.125 C 8.035156 -2.789062 8.265625 -3.695312 8.265625 -4.84375 C 8.265625 -5.976562 8.035156 -6.867188 7.578125 -7.515625 C 7.128906 -8.160156 6.414062 -8.484375 5.4375 -8.484375 C 4.445312 -8.484375 3.726562 -8.160156 3.28125 -7.515625 C 2.84375 -6.867188 2.625 -5.976562 2.625 -4.84375 Z M 2.625 -4.84375 "/></g></g></g><g fill="#ffffff" fill-opacity="1"><g transform="translate(43.551113, 27.371998)"><g><path d="M 7.8125 -2.65625 C 7.8125 -1.726562 7.460938 -1.019531 6.765625 -0.53125 C 6.066406 -0.0507812 5.128906 0.1875 3.953125 0.1875 C 3.285156 0.1875 2.707031 0.128906 2.21875 0.015625 C 1.738281 -0.0859375 1.3125 -0.238281 0.9375 -0.4375 L 0.9375 -1.875 C 1.320312 -1.675781 1.785156 -1.492188 2.328125 -1.328125 C 2.867188 -1.171875 3.425781 -1.09375 4 -1.09375 C 4.800781 -1.09375 5.378906 -1.222656 5.734375 -1.484375 C 6.097656 -1.742188 6.28125 -2.085938 6.28125 -2.515625 C 6.28125 -2.753906 6.210938 -2.96875 6.078125 -3.15625 C 5.941406 -3.351562 5.703125 -3.546875 5.359375 -3.734375 C 5.023438 -3.929688 4.539062 -4.148438 3.90625 -4.390625 C 3.28125 -4.628906 2.742188 -4.867188 2.296875 -5.109375 C 1.859375 -5.347656 1.519531 -5.632812 1.28125 -5.96875 C 1.039062 -6.300781 0.921875 -6.734375 0.921875 -7.265625 C 0.921875 -8.078125 1.25 -8.703125 1.90625 -9.140625 C 2.570312 -9.585938 3.445312 -9.8125 4.53125 -9.8125 C 5.113281 -9.8125 5.660156 -9.75 6.171875 -9.625 C 6.679688 -9.507812 7.160156 -9.359375 7.609375 -9.171875 L 7.0625 -7.90625 C 6.65625 -8.082031 6.226562 -8.226562 5.78125 -8.34375 C 5.34375 -8.46875 4.890625 -8.53125 4.421875 -8.53125 C 3.773438 -8.53125 3.28125 -8.421875 2.9375 -8.203125 C 2.59375 -7.992188 2.421875 -7.710938 2.421875 -7.359375 C 2.421875 -7.078125 2.5 -6.847656 2.65625 -6.671875 C 2.8125 -6.492188 3.070312 -6.3125 3.4375 -6.125 C 3.8125 -5.945312 4.300781 -5.742188 4.90625 -5.515625 C 5.519531 -5.285156 6.039062 -5.050781 6.46875 -4.8125 C 6.90625 -4.570312 7.238281 -4.28125 7.46875 -3.9375 C 7.695312 -3.601562 7.8125 -3.175781 7.8125 -2.65625 Z M 7.8125 -2.65625 "/></g></g></g><g fill="#ffffff" fill-opacity="1"><g transform="translate(52.167785, 27.371998)"><g><path d="M 11.125 0 L 9.21875 0 L 4.671875 -6.125 L 3.359375 -4.984375 L 3.359375 0 L 1.75 0 L 1.75 -12.84375 L 3.359375 -12.84375 L 3.359375 -6.515625 C 3.722656 -6.921875 4.085938 -7.328125 4.453125 -7.734375 C 4.828125 -8.140625 5.203125 -8.546875 5.578125 -8.953125 L 9.046875 -12.84375 L 10.9375 -12.84375 L 5.84375 -7.25 Z M 11.125 0 "/></g></g></g><g fill="#ffffff" fill-opacity="1"><g transform="translate(63.302895, 27.371998)"><g><path d="M 5.171875 -9.796875 C 6.347656 -9.796875 7.21875 -9.535156 7.78125 -9.015625 C 8.34375 -8.503906 8.625 -7.6875 8.625 -6.5625 L 8.625 0 L 7.484375 0 L 7.171875 -1.359375 L 7.109375 -1.359375 C 6.679688 -0.835938 6.234375 -0.445312 5.765625 -0.1875 C 5.304688 0.0625 4.671875 0.1875 3.859375 0.1875 C 2.984375 0.1875 2.257812 -0.0390625 1.6875 -0.5 C 1.113281 -0.96875 0.828125 -1.691406 0.828125 -2.671875 C 0.828125 -3.640625 1.203125 -4.382812 1.953125 -4.90625 C 2.710938 -5.425781 3.878906 -5.707031 5.453125 -5.75 L 7.078125 -5.8125 L 7.078125 -6.390625 C 7.078125 -7.191406 6.90625 -7.75 6.5625 -8.0625 C 6.21875 -8.375 5.726562 -8.53125 5.09375 -8.53125 C 4.582031 -8.53125 4.097656 -8.453125 3.640625 -8.296875 C 3.191406 -8.148438 2.769531 -7.976562 2.375 -7.78125 L 1.890625 -8.96875 C 2.304688 -9.195312 2.800781 -9.390625 3.375 -9.546875 C 3.957031 -9.710938 4.554688 -9.796875 5.171875 -9.796875 Z M 7.0625 -4.71875 L 5.640625 -4.65625 C 4.441406 -4.613281 3.613281 -4.421875 3.15625 -4.078125 C 2.695312 -3.742188 2.46875 -3.269531 2.46875 -2.65625 C 2.46875 -2.125 2.628906 -1.726562 2.953125 -1.46875 C 3.285156 -1.21875 3.707031 -1.09375 4.21875 -1.09375 C 5.03125 -1.09375 5.707031 -1.316406 6.25 -1.765625 C 6.789062 -2.222656 7.0625 -2.914062 7.0625 -3.84375 Z M 7.0625 -4.71875 "/></g></g></g><g fill="#ffffff" fill-opacity="1"><g transform="translate(73.394649, 27.371998)"><g><path d="M 4.953125 0.1875 C 3.742188 0.1875 2.78125 -0.226562 2.0625 -1.0625 C 1.34375 -1.894531 0.984375 -3.140625 0.984375 -4.796875 C 0.984375 -6.453125 1.347656 -7.703125 2.078125 -8.546875 C 2.804688 -9.390625 3.769531 -9.8125 4.96875 -9.8125 C 5.707031 -9.8125 6.3125 -9.675781 6.78125 -9.40625 C 7.257812 -9.132812 7.648438 -8.800781 7.953125 -8.40625 L 8.0625 -8.40625 C 8.03125 -8.550781 8.003906 -8.773438 7.984375 -9.078125 C 7.960938 -9.390625 7.953125 -9.632812 7.953125 -9.8125 L 7.953125 -13.671875 L 9.53125 -13.671875 L 9.53125 0 L 8.25 0 L 8.015625 -1.296875 L 7.953125 -1.296875 C 7.660156 -0.890625 7.273438 -0.539062 6.796875 -0.25 C 6.316406 0.0390625 5.703125 0.1875 4.953125 0.1875 Z M 5.203125 -1.140625 C 6.210938 -1.140625 6.925781 -1.414062 7.34375 -1.96875 C 7.757812 -2.53125 7.96875 -3.375 7.96875 -4.5 L 7.96875 -4.78125 C 7.96875 -5.976562 7.769531 -6.894531 7.375 -7.53125 C 6.976562 -8.175781 6.242188 -8.5 5.171875 -8.5 C 4.328125 -8.5 3.691406 -8.160156 3.265625 -7.484375 C 2.835938 -6.804688 2.625 -5.898438 2.625 -4.765625 C 2.625 -3.617188 2.835938 -2.726562 3.265625 -2.09375 C 3.691406 -1.457031 4.335938 -1.140625 5.203125 -1.140625 Z M 5.203125 -1.140625 "/></g></g></g><g clip-path="url(#a85b0cb7b5)"><path fill="#004aad" d="M 88.210938 26.171875 C 88.210938 27.207031 87.371094 28.046875 86.335938 28.046875 C 85.757812 28.046875 85.242188 27.785156 84.898438 27.371094 C 84.640625 27.0625 84.480469 26.667969 84.464844 26.238281 C 84.464844 26.21875 84.464844 26.195312 84.464844 26.171875 C 84.464844 25.136719 85.304688 24.300781 86.335938 24.300781 C 86.550781 24.300781 86.753906 24.335938 86.945312 24.398438 C 87.339844 24.535156 87.675781 24.796875 87.902344 25.140625 C 88.097656 25.4375 88.210938 25.789062 88.210938 26.171875 " fill-opacity="1" fill-rule="nonzero"/></g><g clip-path="url(#f48cac71eb)"><path fill="#ffffff" d="M 12.632812 11.980469 C 10.519531 12.199219 8.621094 13.097656 7.136719 14.578125 C 5.714844 16.003906 4.859375 17.746094 4.5625 19.828125 C 4.503906 20.242188 4.503906 21.625 4.5625 22.039062 C 4.863281 24.121094 5.714844 25.859375 7.136719 27.285156 C 8.5625 28.710938 10.300781 29.5625 12.386719 29.859375 C 12.800781 29.921875 14.183594 29.921875 14.597656 29.859375 C 16.042969 29.652344 17.273438 29.199219 18.445312 28.433594 C 19.398438 27.808594 20.367188 26.839844 20.992188 25.886719 C 21.757812 24.710938 22.210938 23.488281 22.417969 22.039062 C 22.480469 21.625 22.480469 20.242188 22.417969 19.828125 C 22.121094 17.746094 21.265625 16.007812 19.84375 14.578125 C 18.453125 13.1875 16.753906 12.339844 14.757812 12.03125 C 14.3125 11.964844 13.082031 11.933594 12.632812 11.980469 Z M 14.597656 18.042969 C 14.582031 18.097656 14.269531 19.414062 13.890625 20.96875 C 13.515625 22.523438 13.199219 23.824219 13.191406 23.855469 C 13.171875 23.910156 13.121094 23.917969 12.769531 23.917969 L 12.359375 23.917969 L 12.386719 23.800781 C 12.398438 23.742188 12.71875 22.410156 13.089844 20.847656 C 13.46875 19.28125 13.773438 17.992188 13.773438 17.976562 C 13.773438 17.960938 13.960938 17.949219 14.199219 17.949219 L 14.621094 17.949219 Z M 11.980469 19.34375 L 11.980469 19.898438 L 10.6875 20.386719 C 9.980469 20.65625 9.363281 20.894531 9.3125 20.917969 L 9.226562 20.964844 L 9.328125 21.003906 C 9.390625 21.023438 10.003906 21.265625 10.699219 21.542969 L 11.964844 22.046875 L 11.972656 22.59375 C 11.976562 22.898438 11.972656 23.144531 11.957031 23.144531 C 11.9375 23.144531 11.046875 22.761719 9.972656 22.296875 L 8.011719 21.445312 L 8.011719 20.488281 L 8.550781 20.25 C 11.328125 19.042969 11.902344 18.796875 11.9375 18.792969 C 11.972656 18.789062 11.980469 18.925781 11.980469 19.34375 Z M 17.050781 19.660156 L 18.96875 20.492188 L 18.96875 21.445312 L 17.628906 22.03125 C 16.886719 22.351562 15.996094 22.742188 15.640625 22.898438 L 15 23.175781 L 15.007812 22.613281 L 15.019531 22.046875 L 16.355469 21.523438 C 17.089844 21.234375 17.699219 20.988281 17.714844 20.976562 C 17.726562 20.960938 17.125 20.710938 16.378906 20.425781 L 15.019531 19.894531 L 15.007812 19.339844 C 15 18.820312 15.003906 18.785156 15.0625 18.804688 C 15.097656 18.820312 15.988281 19.207031 17.050781 19.660156 Z M 17.050781 19.660156 " fill-opacity="1" fill-rule="nonzero"/></g></svg>